<svg width="544" height="440" viewBox="0 0 544 440" fill="none" xmlns="http://www.w3.org/2000/svg">
<path d="M7 305.237V408C7 421.807 18.1929 433 32 433H134.972C142.243 433 149.154 429.834 153.903 424.329L282.717 274.985C297.852 257.438 326.648 268.141 326.648 291.313V315C326.648 380.17 379.479 433 444.648 433H512C525.807 433 537 421.807 537 408V238.247C537 224.44 525.807 213.247 512 213.247H403.527C389.72 213.247 378.527 202.054 378.527 188.247V32C378.527 18.1929 367.334 7 353.527 7H251.232C243.65 7 236.477 10.4409 231.732 16.3547L12.5006 289.592C8.94037 294.029 7 299.548 7 305.237Z" fill="url(#paint0_linear_46_212)"/>
<path d="M353.527 3.5C369.267 3.50025 382.027 16.26 382.027 32V188.247C382.028 200.121 391.653 209.747 403.527 209.747H512C527.74 209.747 540.5 222.507 540.5 238.247V408C540.5 423.74 527.74 436.5 512 436.5H444.648C377.546 436.5 323.148 382.103 323.148 315V291.312C323.148 271.385 298.383 262.181 285.367 277.271L156.554 426.614C151.14 432.891 143.262 436.5 134.973 436.5H32C16.2599 436.5 3.5 423.74 3.5 408V305.237C3.5 298.752 5.71179 292.46 9.77051 287.401L229.002 14.1641C234.411 7.42239 242.588 3.50008 251.231 3.5H353.527Z" stroke="white" stroke-opacity="0.83" style="stroke:white;stroke-opacity:0.83;" stroke-width="7"/>
<defs>
<linearGradient id="paint0_linear_46_212" x1="7" y1="7" x2="546.5" y2="442.5" gradientUnits="userSpaceOnUse">
<stop stop-color="#EEEFE7" style="stop-color:#EEEFE7;stop-color:color(display-p3 0.9333 0.9373 0.9059);stop-opacity:1;"/>
<stop offset="1" stop-color="#C5C5C5" style="stop-color:#C5C5C5;stop-color:color(display-p3 0.7714 0.7714 0.7714);stop-opacity:1;"/>
</linearGradient>
</defs>
</svg>
